PathFileType	4	(X/Y/Z)	output.trc
DataRate	CameraRate	NumFrames	NumMarkers	Units	OrigDataRate	OrigDataStartFrame	OrigNumFrames
100	100	10	23	m	100	1510	6039
Frame#	Time	C7			T8			EL			EM			US			RS			AA			Fore_Clus_1			Fore_Clus_2			Fore_Clus_3			Fore_Clus_4			Hum_Clus_1			Hum_Clus_2			Hum_Clus_3			Hum_Clus_4			Thor_Clus_1			Thor_Clus_2			Thor_Clus_3			Thor_Clus_4			IJ			PX			GH			Thor_Clus_5		
		X1	Y1	Z1	X2	Y2	Z2	X3	Y3	Z3	X4	Y4	Z4	X5	Y5	Z5	X6	Y6	Z6	X7	Y7	Z7	X8	Y8	Z8	X9	Y9	Z9	X10	Y10	Z10	X11	Y11	Z11	X12	Y12	Z12	X13	Y13	Z13	X14	Y14	Z14	X15	Y15	Z15	X16	Y16	Z16	X17	Y17	Z17	X18	Y18	Z18	X19	Y19	Z19	X20	Y20	Z20	X21	Y21	Z21	X22	Y22	Z22	X23	Y23	Z23
1509	15.090000	-0.045637	1.444002	-0.081972	-0.039056	1.217338	-0.069150	-0.211820	1.091253	0.082527	-0.197007	1.066916	0.021318	-0.249801	0.835982	0.130906	-0.204536	0.835738	0.147944	-0.169688	1.358589	0.047106	-0.256920	0.892627	0.153591	-0.263651	0.839320	0.164076	-0.237733	0.838182	0.174745	-0.215077	0.891124	0.170496	-0.184883	1.192979	0.130726	-0.232986	1.212446	0.099654	-0.224682	1.275305	0.105437	-0.171932	1.266049	0.129771	0.082703	1.337884	0.042564	0.045331	1.292359	0.102936	0.045180	1.337248	0.066505	0.099314	1.292979	0.067816	0.015612	1.365759	-0.002109	0.056465	1.161498	0.079827	-0.134034	1.344396	0.048818	0.037433	1.312182	0.091456
1510	15.100000	-0.045623	1.444056	-0.082028	-0.039002	1.217388	-0.069285	-0.211851	1.091275	0.082425	-0.197043	1.066949	0.021210	-0.249741	0.835997	0.130743	-0.204499	0.835797	0.147841	-0.169691	1.358573	0.046987	-0.256856	0.892401	0.153641	-0.263720	0.839355	0.163986	-0.237792	0.838192	0.174651	-0.215111	0.891141	0.170392	-0.184887	1.192999	0.130645	-0.232993	1.212471	0.099576	-0.224696	1.275325	0.105363	-0.171938	1.266077	0.129683	0.082721	1.337924	0.042496	0.045361	1.292406	0.102846	0.045182	1.337308	0.066444	0.099322	1.293020	0.067752	0.015620	1.365796	-0.002177	0.056492	1.161514	0.079697	-0.134030	1.344414	0.048771	0.037431	1.312197	0.091376
1511	15.110000	-0.045615	1.444103	-0.082087	-0.038958	1.217433	-0.069414	-0.211887	1.091295	0.082329	-0.197087	1.066979	0.021108	-0.249687	0.836012	0.130588	-0.204464	0.835850	0.147739	-0.169695	1.358558	0.046876	-0.256907	0.892407	0.153541	-0.264232	0.839703	0.164109	-0.237847	0.838202	0.174537	-0.215158	0.891136	0.170294	-0.184932	1.192993	0.130571	-0.233026	1.212477	0.099494	-0.224703	1.275332	0.105292	-0.171945	1.266058	0.129612	0.082706	1.337977	0.042418	0.045357	1.292420	0.102748	0.045174	1.337305	0.066383	0.099323	1.293058	0.067700	0.015625	1.365829	-0.002247	0.056514	1.161527	0.079571	-0.134024	1.344428	0.048718	0.037421	1.312222	0.091314
1512	15.120000	-0.045610	1.444150	-0.082145	-0.038922	1.217477	-0.069541	-0.211922	1.091315	0.082235	-0.197130	1.067006	0.021008	-0.249645	0.836025	0.130445	-0.204438	0.835896	0.147636	-0.169700	1.358547	0.046769	-0.256947	0.892418	0.153451	-0.263662	0.839281	0.163741	-0.237911	0.838209	0.174440	-0.215189	0.891151	0.170182	-0.184948	1.193007	0.130496	-0.233031	1.212504	0.099412	-0.224711	1.275359	0.105237	-0.171950	1.266072	0.129543	0.082772	1.338040	0.042366	0.045335	1.292437	0.102618	0.045157	1.337341	0.066312	0.099315	1.293079	0.067616	0.015628	1.365860	-0.002319	0.056531	1.161539	0.079443	-0.134020	1.344441	0.048660	0.037424	1.312238	0.091226
1513	15.130000	-0.045608	1.444194	-0.082204	-0.038898	1.217518	-0.069664	-0.211959	1.091334	0.082145	-0.197177	1.067031	0.020914	-0.249625	0.836038	0.130315	-0.204428	0.835931	0.147532	-0.169706	1.358541	0.046669	-0.256995	0.892437	0.153349	-0.263593	0.839257	0.163562	-0.237946	0.838218	0.174335	-0.215225	0.891155	0.170080	-0.184959	1.193019	0.130407	-0.233052	1.212516	0.099336	-0.224721	1.275380	0.105176	-0.171950	1.266061	0.129471	0.082747	1.338043	0.042290	0.045317	1.292441	0.102527	0.045141	1.337335	0.066242	0.099311	1.293090	0.067540	0.015627	1.365888	-0.002393	0.056543	1.161548	0.079316	-0.134018	1.344451	0.048596	0.037394	1.312232	0.091152
1514	15.140000	-0.045610	1.444237	-0.082264	-0.038886	1.217558	-0.069783	-0.211997	1.091352	0.082059	-0.197228	1.067052	0.020824	-0.249632	0.836051	0.130200	-0.204437	0.835953	0.147424	-0.169713	1.358542	0.046577	-0.257051	0.892460	0.153261	-0.264957	0.840098	0.164333	-0.238007	0.838252	0.174249	-0.215266	0.891165	0.169989	-0.184963	1.193030	0.130333	-0.233056	1.212536	0.099255	-0.224720	1.275401	0.105124	-0.171947	1.266067	0.129406	0.082760	1.338046	0.042223	0.045300	1.292435	0.102443	0.045128	1.337361	0.066172	0.099299	1.293089	0.067469	0.015624	1.365914	-0.002468	0.056546	1.161555	0.079190	-0.134017	1.344459	0.048525	0.037407	1.312216	0.091080
1515	15.150000	-0.045613	1.444284	-0.082322	-0.038884	1.217602	-0.069903	-0.212033	1.091370	0.081976	-0.197277	1.067073	0.020736	-0.249668	0.836066	0.130101	-0.204468	0.835964	0.147312	-0.169721	1.358551	0.046489	-0.257070	0.892436	0.153164	-0.263883	0.839415	0.163518	-0.238044	0.838253	0.174123	-0.215318	0.891189	0.169895	-0.184984	1.193026	0.130255	-0.233073	1.212548	0.099195	-0.224723	1.275408	0.105060	-0.171941	1.266057	0.129327	0.082771	1.338066	0.042175	0.045283	1.292420	0.102350	0.045107	1.337347	0.066109	0.099315	1.293084	0.067348	0.015619	1.365941	-0.002544	0.056542	1.161560	0.079060	-0.134021	1.344468	0.048448	0.037377	1.312201	0.090991
1516	15.160000	-0.045618	1.444330	-0.082382	-0.038894	1.217645	-0.070018	-0.212071	1.091387	0.081896	-0.197331	1.067090	0.020653	-0.249737	0.836083	0.130017	-0.204524	0.835961	0.147194	-0.169729	1.358568	0.046407	-0.257107	0.892464	0.153064	-0.263986	0.839482	0.163451	-0.238070	0.838286	0.173979	-0.215350	0.891199	0.169776	-0.184978	1.193038	0.130165	-0.233077	1.212566	0.099117	-0.224724	1.275428	0.105003	-0.171944	1.266077	0.129256	0.082772	1.338090	0.042049	0.045263	1.292415	0.102265	0.045106	1.337356	0.066031	0.099295	1.293088	0.067258	0.015612	1.365966	-0.002623	0.056529	1.161564	0.078932	-0.134028	1.344475	0.048362	0.037389	1.312211	0.090895
1517	15.170000	-0.045621	1.444383	-0.082439	-0.038914	1.217694	-0.070136	-0.212105	1.091404	0.081817	-0.197381	1.067106	0.020570	-0.249835	0.836102	0.129946	-0.204603	0.835947	0.147072	-0.169737	1.358596	0.046328	-0.257128	0.892456	0.152966	-0.264515	0.839871	0.163575	-0.238088	0.838295	0.173870	-0.215387	0.891216	0.169676	-0.184990	1.193043	0.130087	-0.233097	1.212578	0.099048	-0.224733	1.275435	0.104942	-0.171948	1.266093	0.129165	0.082804	1.338131	0.041996	0.045249	1.292414	0.102174	0.045077	1.337365	0.065937	0.099293	1.293099	0.067154	0.015603	1.365993	-0.002702	0.056506	1.161567	0.078798	-0.134041	1.344483	0.048270	0.037374	1.312208	0.090803
1518	15.180000	-0.045624	1.444440	-0.082497	-0.038944	1.217746	-0.070254	-0.212139	1.091421	0.081740	-0.197433	1.067121	0.020489	-0.249961	0.836123	0.129888	-0.204703	0.835923	0.146945	-0.169746	1.358633	0.046251	-0.257142	0.892472	0.152874	-0.265021	0.840118	0.163859	-0.238090	0.838306	0.173759	-0.215392	0.891228	0.169552	-0.185001	1.193067	0.130007	-0.233109	1.212604	0.098984	-0.224752	1.275461	0.104870	-0.171943	1.266110	0.129080	0.082753	1.338100	0.041859	0.045231	1.292402	0.102074	0.045050	1.337374	0.065848	0.099285	1.293095	0.067042	0.015594	1.366021	-0.002782	0.056474	1.161568	0.078662	-0.134059	1.344492	0.048170	0.037361	1.312207	0.090697
